# Rhino

mtllib MBB.mtl
usemtl diffuse_0
v 0 0 0
v 0 30 0
v 90 0 0
v 90 30 0
v 45 0 0
v 45 30 0
v 90 15.0000002492269 0
v 5 0 0
v 5 5 0
v 0 4.9999990463256836 0
v 0 25 0
v 5 25 0
v 5 30 0
v 90 5 0
v 85 5.0000019073486328 0
v 85 0 0
v 85 30 0
v 85 25 0
v 90 25 0
v 45.000000048013092 4.9999990463256836 0
v 39.999999523162842 5 0
v 39.999998092651367 0 0
v 50 0 0
v 50 4.9999990463256836 0
v 40 30 0
v 40 25 0
v 44.999999995651081 25.000000953674316 0
v 50 25 0
v 50 30 0
v 85 15.000000011230238 0
v 85 10.000000476837158 0
v 90 10 0
v 90 20.000000953674316 0
v 85 20.000000476837158 0
v 80 25 0
v 80 20 0
v 80 14.999999891351152 0
v 75 20 0
v 75 14.999999287772823 0
v 75 10 0
v 80 10 0
v 80 5.0000019073486328 0
v 80 0 0
v 69.999998092651367 14.999999447731454 0
v 69.999998092651367 10 0
v 69.999998092651367 4.9999990463256836 0
v 75 5 0
v 70 0 0
v 75 0 0
v 65 5 0
v 65 0 0
v 60 5 0
v 60 0 0
v 55 5.0000009536743164 0
v 55 0 0
v 60 10 0
v 55 10.000000953674316 0
v 50 10 0
v 55 14.999999570536716 0
v 50 15.000000753509198 0
v 44.999999995918834 15.000000203873356 0
v 45.000000007326683 10 0
v 40.000001907348633 15.000000167914877 0
v 40 10 0
v 35.000001907348633 15.000000775932676 0
v 35 10.000001907348633 0
v 35 5.0000019073486328 0
v 30 10.000000953674316 0
v 30 5.0000019073486328 0
v 30 0 0
v 34.999998092651367 0 0
v 25 5 0
v 25 0 0
v 20.000001907348633 5 0
v 20 0 0
v 15 5 0
v 15 0 0
v 10 5 0
v 10 0 0
v 15 9.9999995231628418 0
v 10 9.9999990463256836 0
v 5 9.9999990463256836 0
v 10 14.999999617782379 0
v 5 14.999999025328862 0
v 0 14.999999119440645 0
v 0 9.9999990463256836 0
v 5 19.999999523162842 0
v 0 19.999999523162842 0
v 10 20 0
v 10 25 0
v 15 25 0
v 15 30 0
v 10 30 0
v 15 20 0
v 20.000001907348633 19.999999523162842 0
v 20.000001907348633 25 0
v 15 14.999999914267917 0
v 20.000001907348633 15.000000065970696 0
v 25 15.000000030041825 0
v 25 20 0
v 20.000001907348633 10 0
v 25 10 0
v 30 19.999999046325684 0
v 30 25 0
v 25 25 0
v 30 15.000000419969069 0
v 35.000001907348633 19.999998092651367 0
v 40.000000953674316 20 0
v 35 25 0
v 35 30 0
v 30 30 0
v 25 30 0
v 20 30 0
v 44.999999981805253 20 0
v 50 20 0
v 55 19.999998092651367 0
v 55 24.999998092651367 0
v 60 25 0
v 60 30 0
v 55 30 0
v 60 19.999999046325684 0
v 65 19.999999046325684 0
v 65 25 0
v 60 14.999999065928705 0
v 65 14.999999401864272 0
v 69.999998092651367 20 0
v 65 10 0
v 75 25 0
v 69.999998092651367 25 0
v 75 30 0
v 70 30 0
v 65 30 0
v 80 30 0
vn 0 0 1
vn 0 0 1
vn 0 0 1
vn 0 0 1
vn 0 0 1
vn 0 0 1
vn 0 0 1
vn 0 0 1
vn 0 0 1
vn 0 0 1
vn 0 0 1
vn 0 0 1
vn 0 0 1
vn 0 0 1
vn 0 0 1
vn 0 0 1
vn 0 0 1
vn 0 0 1
vn 0 0 1
vn 0 0 1
vn 0 0 1
vn 0 0 1
vn 0 0 1
vn 0 0 1
vn 0 0 1
vn 0 0 1
vn 0 0 1
vn 0 0 1
vn 0 0 1
vn 0 0 1
vn 0 0 1
vn 0 0 1
vn 0 0 1
vn 0 0 1
vn 0 0 1
vn 0 0 1
vn 0 0 1
vn 0 0 1
vn 0 0 1
vn 0 0 1
vn 0 0 1
vn 0 0 1
vn 0 0 1
vn 0 0 1
vn 0 0 1
vn 0 0 1
vn 0 0 1
vn 0 0 1
vn 0 0 1
vn 0 0 1
vn 0 0 1
vn 0 0 1
vn 0 0 1
vn 0 0 1
vn 0 0 1
vn 0 0 1
vn 0 0 1
vn 0 0 1
vn 0 0 1
vn 0 0 1
vn 0 0 1
vn 0 0 1
vn 0 0 1
vn 0 0 1
vn 0 0 1
vn 0 0 1
vn 0 0 1
vn 0 0 1
vn 0 0 1
vn 0 0 1
vn 0 0 1
vn 0 0 1
vn 0 0 1
vn 0 0 1
vn 0 0 1
vn 0 0 1
vn 0 0 1
vn 0 0 1
vn 0 0 1
vn 0 0 1
vn 0 0 1
vn 0 0 1
vn 0 0 1
vn 0 0 1
vn 0 0 1
vn 0 0 1
vn 0 0 1
vn 0 0 1
vn 0 0 1
vn 0 0 1
vn 0 0 1
vn 0 0 1
vn 0 0 1
vn 0 0 1
vn 0 0 1
vn 0 0 1
vn 0 0 1
vn 0 0 1
vn 0 0 1
vn 0 0 1
vn 0 0 1
vn 0 0 1
vn 0 0 1
vn 0 0 1
vn 0 0 1
vn 0 0 1
vn 0 0 1
vn 0 0 1
vn 0 0 1
vn 0 0 1
vn 0 0 1
vn 0 0 1
vn 0 0 1
vn 0 0 1
vn 0 0 1
vn 0 0 1
vn 0 0 1
vn 0 0 1
vn 0 0 1
vn 0 0 1
vn 0 0 1
vn 0 0 1
vn 0 0 1
vn 0 0 1
vn 0 0 1
vn 0 0 1
vn 0 0 1
vn 0 0 1
vn 0 0 1
vn 0 0 1
vn 0 0 1
vn 0 0 1
vn 0 0 1
f 1//1 8//8 9//9 10//10
f 2//2 11//11 12//12 13//13
f 3//3 14//14 15//15 16//16
f 4//4 17//17 18//18 19//19
f 5//5 20//20 21//21 22//22
f 5//5 23//23 24//24 20//20
f 6//6 25//25 26//26 27//27
f 6//6 27//27 28//28 29//29
f 7//7 30//30 31//31 32//32
f 7//7 33//33 34//34 30//30
f 34//34 33//33 19//19 18//18
f 34//34 18//18 35//35 36//36
f 34//34 36//36 37//37 30//30
f 37//37 36//36 38//38 39//39
f 37//37 39//39 40//40 41//41
f 37//37 41//41 31//31 30//30
f 41//41 42//42 15//15 31//31
f 42//42 43//43 16//16 15//15
f 40//40 39//39 44//44 45//45
f 40//40 45//45 46//46 47//47
f 40//40 47//47 42//42 41//41
f 47//47 46//46 48//48 49//49
f 47//47 49//49 43//43 42//42
f 48//48 46//46 50//50 51//51
f 51//51 50//50 52//52 53//53
f 53//53 52//52 54//54 55//55
f 55//55 54//54 24//24 23//23
f 54//54 52//52 56//56 57//57
f 54//54 57//57 58//58 24//24
f 58//58 57//57 59//59 60//60
f 58//58 60//60 61//61 62//62
f 58//58 62//62 20//20 24//24
f 62//62 61//61 63//63 64//64
f 62//62 64//64 21//21 20//20
f 64//64 63//63 65//65 66//66
f 64//64 66//66 67//67 21//21
f 67//67 66//66 68//68 69//69
f 67//67 69//69 70//70 71//71
f 67//67 71//71 22//22 21//21
f 70//70 69//69 72//72 73//73
f 73//73 72//72 74//74 75//75
f 75//75 74//74 76//76 77//77
f 77//77 76//76 78//78 79//79
f 79//79 78//78 9//9 8//8
f 78//78 76//76 80//80 81//81
f 78//78 81//81 82//82 9//9
f 82//82 81//81 83//83 84//84
f 82//82 84//84 85//85 86//86
f 82//82 86//86 10//10 9//9
f 85//85 84//84 87//87 88//88
f 88//88 87//87 12//12 11//11
f 87//87 89//89 90//90 12//12
f 87//87 84//84 83//83 89//89
f 90//90 91//91 92//92 93//93
f 90//90 93//93 13//13 12//12
f 90//90 89//89 94//94 91//91
f 94//94 95//95 96//96 91//91
f 94//94 89//89 83//83 97//97
f 94//94 97//97 98//98 95//95
f 98//98 99//99 100//100 95//95
f 98//98 101//101 102//102 99//99
f 102//102 101//101 74//74 72//72
f 102//102 72//72 69//69 68//68
f 100//100 103//103 104//104 105//105
f 100//100 105//105 96//96 95//95
f 100//100 99//99 106//106 103//103
f 106//106 65//65 107//107 103//103
f 106//106 68//68 66//66 65//65
f 107//107 108//108 26//26 109//109
f 107//107 109//109 104//104 103//103
f 107//107 65//65 63//63 108//108
f 109//109 26//26 25//25 110//110
f 109//109 110//110 111//111 104//104
f 111//111 112//112 105//105 104//104
f 112//112 113//113 96//96 105//105
f 113//113 92//92 91//91 96//96
f 108//108 114//114 27//27 26//26
f 108//108 63//63 61//61 114//114
f 114//114 115//115 28//28 27//27
f 114//114 61//61 60//60 115//115
f 115//115 116//116 117//117 28//28
f 115//115 60//60 59//59 116//116
f 117//117 118//118 119//119 120//120
f 117//117 120//120 29//29 28//28
f 117//117 116//116 121//121 118//118
f 121//121 122//122 123//123 118//118
f 121//121 116//116 59//59 124//124
f 121//121 124//124 125//125 122//122
f 125//125 44//44 126//126 122//122
f 125//125 124//124 56//56 127//127
f 125//125 127//127 45//45 44//44
f 127//127 56//56 52//52 50//50
f 127//127 50//50 46//46 45//45
f 126//126 38//38 128//128 129//129
f 126//126 129//129 123//123 122//122
f 126//126 44//44 39//39 38//38
f 129//129 128//128 130//130 131//131
f 129//129 131//131 132//132 123//123
f 132//132 119//119 118//118 123//123
f 130//130 128//128 35//35 133//133
f 133//133 35//35 18//18 17//17
f 128//128 38//38 36//36 35//35
f 124//124 59//59 57//57 56//56
f 99//99 102//102 68//68 106//106
f 97//97 83//83 81//81 80//80
f 97//97 80//80 101//101 98//98
f 80//80 76//76 74//74 101//101
f 32//32 31//31 15//15 14//14
